<svg width="34" height="36" viewBox="0 0 34 36" fill="none" xmlns="http://www.w3.org/2000/svg">
<path d="M30.94 0H3.06C1.37001 0 0 1.3557 0 3.02804V22.5421C0 24.2144 1.37001 25.5701 3.06 25.5701H30.94C32.63 25.5701 34 24.2144 34 22.5421V3.02804C34 1.3557 32.63 0 30.94 0Z" fill="#444444"/>
<path d="M19.8137 19.5236C20.6978 19.5236 21.1632 20.5607 20.5704 21.2097L8.92566 33.9588C8.29975 34.6442 7.14953 34.2064 7.14892 33.2827L7.14063 20.5336C7.14029 19.9759 7.59704 19.5236 8.16063 19.5236L19.8137 19.5236Z" fill="#444444"/>
<path d="M18.3038 7.24209H16V5H18.3038V7.24209ZM18.2467 18.6033H16.0571V9.05084H18.2467V18.6033Z" fill="#2E2E2E"/>
</svg>
