<svg width="46" height="34" viewBox="0 0 46 34" fill="none" xmlns="http://www.w3.org/2000/svg">
<path d="M21.0994 2.01092C22.1238 0.927025 23.8762 0.927025 24.9007 2.01092L38.9065 16.8294C40.4375 18.4491 39.2619 21.0744 37.0059 21.0744H8.99424C6.73811 21.0744 5.56267 18.4492 7.09357 16.8294L21.0994 2.01092Z" fill="white"/>
<path d="M17.25 18.8264H13.225C11.9548 18.8264 10.925 19.8329 10.925 21.0744V31.752C10.925 32.9935 11.9548 34 13.225 34H17.25C18.5203 34 19.55 32.9935 19.55 31.752V21.0744C19.55 19.8329 18.5203 18.8264 17.25 18.8264Z" fill="white"/>
<path d="M32.4875 18.8264H28.4625C27.1922 18.8264 26.1625 19.8329 26.1625 21.0744V31.752C26.1625 32.9935 27.1922 34 28.4625 34H32.4875C33.7577 34 34.7875 32.9935 34.7875 31.752V21.0744C34.7875 19.8329 33.7577 18.8264 32.4875 18.8264Z" fill="white"/>
</svg>
