<svg width="34" height="51" viewBox="0 0 34 51" fill="none" xmlns="http://www.w3.org/2000/svg">
<path d="M3 34C1.34315 34 -0.0268517 32.6466 0.264023 31.0155C0.478832 29.811 0.82357 28.6302 1.29405 27.4944C2.14838 25.4318 3.40059 23.5578 4.97919 21.9792C6.55778 20.4006 8.43185 19.1484 10.4944 18.294C12.5569 17.4397 14.7675 17 17 17C19.2325 17 21.4431 17.4397 23.5056 18.294C25.5682 19.1484 27.4422 20.4006 29.0208 21.9792C30.5994 23.5578 31.8516 25.4318 32.706 27.4944C33.1764 28.6302 33.5212 29.811 33.736 31.0155C34.0269 32.6467 32.6569 34 31 34L17 34H3Z" fill="#444444"/>
<path d="M26.775 9.5625C26.775 14.8437 22.3035 19.125 16.7875 19.125C11.2716 19.125 6.80005 14.8437 6.80005 9.5625C6.80005 4.28128 11.2716 0 16.7875 0C22.3035 0 26.775 4.28128 26.775 9.5625Z" fill="#444444"/>
</svg>
